{"asset":{"version":"2.0","generator":"Unity 6000.2.9f1 glTFast 6.15.1"},"nodes":[{"name":"bip_toe_L","translation":[3.5527136E-17,0.09153746,0.049121175]},{"name":"bip_foot_L","children":[0],"translation":[0,0,0.174685821],"rotation":[-0.06474054,-0.06016347,-0.03597256,0.9954371]},{"name":"bip_knee_L","children":[1],"translation":[0,0,0.161854535],"rotation":[0.0598268956,0,0,0.998208761]},{"name":"bip_hip_L","children":[2],"translation":[0.08156491,-0.02652407,-0.0259528756],"rotation":[0.9982387,0.0264078528,0.0501098037,-0.0176406186]},{"name":"bip_toe_R","translation":[3.5527136E-17,-0.091537416,-0.0491211973]},{"name":"bip_foot_R","children":[4],"translation":[0,0,-0.174685538],"rotation":[-0.06474054,-0.06016347,-0.03597256,0.9954371]},{"name":"bip_knee_R","children":[5],"translation":[0,0,-0.161854669],"rotation":[0.0598268956,0,0,0.998208761]},{"name":"bip_hip_R","children":[6],"translation":[-0.0815649,-0.0265241023,-0.0259530172],"rotation":[0.0179288816,0.04963409,-0.0204711817,0.9983967]},{"name":"bip_finger_L6","translation":[0.0510084778,-7.256981E-07,-1.12976556E-06]},{"name":"bip_finger_L5","children":[8],"translation":[0.08014736,0.00223000767,0.0114103109],"rotation":[0.197547376,-0.133404568,0.0138173606,0.9710754]},{"name":"bip_thumb_0_L","translation":[0.0178335272,0.0510699973,0.0316349268],"rotation":[0.7157264,0.2341371,0.513223231,0.411725]},{"name":"wp_L","translation":[-0.0428560041,-0.0141294515,-0.07390743]},{"name":"bip_hand_L","children":[9,10,11],"translation":[0.202926382,0,0],"rotation":[-0.191002131,0.033399906,-5.72459662E-08,0.9810212]},{"name":"bip_lowerArm_L","children":[12],"translation":[0.1868543,0,-1.10068811E-06],"rotation":[1.83655018E-07,2.41080869E-07,0.489734441,0.8718717]},{"name":"bip_upperArm_L","children":[13],"translation":[0.09359556,0,0],"rotation":[-0.0386518277,-0.439276665,0.0509665832,0.896071732]},{"name":"naplech_L","translation":[0.132346168,0.007124389,-0.0459841676]},{"name":"bip_collar_L","children":[14,15],"translation":[0.06782736,9.190994E-05,0.1334916],"rotation":[1,0,0,-6.123234E-17]},{"name":"bip_finger_R6","translation":[-0.05100908,8.42823567E-07,6.111306E-07]},{"name":"bip_finger_R5","children":[17],"translation":[-0.08014666,-0.00223109359,-0.0114083476],"rotation":[0.197547376,-0.133404568,0.0138173606,0.9710754]},{"name":"bip_thumb_0_R","translation":[-0.01783347,-0.0510709547,-0.0316328481],"rotation":[0.7157264,0.2341371,0.513223231,0.411725]},{"name":"wp_R","translation":[-0.0827582851,0.00734729832,-0.0536460467]},{"name":"bip_hand_R","children":[18,19,20],"translation":[-0.202926323,0,0],"rotation":[-0.191002131,0.033399906,-5.72459662E-08,0.9810212]},{"name":"bip_lowerArm_R","children":[21],"translation":[-0.18685478,0,-1.10068811E-06],"rotation":[1.87020945E-07,2.38479117E-07,0.477447748,0.878660142]},{"name":"bip_upperArm_R","children":[22],"translation":[-0.0935956,0,1.42108544E-16],"rotation":[0.1325204,-0.3990996,-0.230211139,0.877588]},{"name":"naplech_R","translation":[-0.1323466,-0.007124372,0.04598399]},{"name":"bip_collar_R","children":[23,24],"translation":[-0.0678273961,9.18900841E-05,0.133491844]},{"name":"bip_head","translation":[-6.93889349E-19,2.27383665E-15,0.101415277]},{"name":"bip_neck","children":[26],"translation":[0,0,0.226642445],"rotation":[0.164314315,0,0,0.986408055]},{"name":"bip_spine_2","children":[16,25,27],"translation":[0,0,0.07072438],"rotation":[-0.0449271277,0,0,0.9989903]},{"name":"bip_spine_0","children":[28],"translation":[0,-0.0115056457,0.07574376],"rotation":[-0.0021136906,0,0,0.9999978]},{"name":"bip_pelvis","children":[3,7,29],"translation":[0,0.00421200227,0.450861]},{"name":"bones","children":[30],"rotation":[-0.7071068,0,0,0.7071068]},{"name":"Paladin","mesh":0,"skin":0},{"name":"Paladin","children":[31,32],"scale":[1.5,1.5,1.5]}],"buffers":[{"uri":"Paladin.bin","byteLength":190552}],"bufferViews":[{"buffer":0,"byteLength":1984},{"buffer":0,"byteLength":12648,"byteOffset":1984,"target":34963},{"buffer":0,"byteLength":87960,"byteOffset":14632,"byteStride":40,"target":34962},{"buffer":0,"byteLength":17592,"byteOffset":102592,"byteStride":8,"target":34962},{"buffer":0,"byteLength":70368,"byteOffset":120184,"byteStride":32,"target":34962}],"accessors":[{"bufferView":2,"componentType":5126,"count":2199,"type":"VEC3","max":[0.765458047,0.336188018,1.31347823],"min":[-0.7136659,-0.844880641,-1.74045563E-05]},{"bufferView":2,"componentType":5126,"count":2199,"type":"VEC3","byteOffset":12},{"bufferView":2,"componentType":5126,"count":2199,"type":"VEC4","byteOffset":24},{"bufferView":3,"componentType":5126,"count":2199,"type":"VEC2"},{"bufferView":4,"componentType":5126,"count":2199,"type":"VEC4"},{"bufferView":4,"componentType":5123,"count":2199,"type":"VEC4","byteOffset":16},{"bufferView":0,"componentType":5126,"count":31,"type":"MAT4"},{"bufferView":1,"componentType":5123,"count":6324,"type":"SCALAR"}],"images":[{"name":"Paladin.jpg","uri":"Paladin.jpg","mimeType":"image/jpeg"}],"materials":[{"name":"Paladin","pbrMetallicRoughness":{"metallicFactor":0,"baseColorTexture":{"index":0}}}],"meshes":[{"name":"Paladin","primitives":[{"attributes":{"POSITION":0,"NORMAL":1,"TANGENT":2,"TEXCOORD_0":3,"JOINTS_0":5,"WEIGHTS_0":4},"indices":7,"material":0}]}],"scene":0,"scenes":[{"name":"Paladin","nodes":[33]}],"skins":[{"inverseBindMatrices":6,"joints":[30,29,28,27,26,16,14,13,12,10,9,8,11,15,25,23,22,21,19,18,17,20,24,3,2,1,0,7,6,5,4]}],"textures":[{"source":0}]}